<?xml version="1.0" encoding="UTF-8"?>
<svg xmlns="http://www.w3.org/2000/svg" xmlns:xlink="http://www.w3.org/1999/xlink" width="400pt" height="300pt" viewBox="0 0 400 300" version="1.1">
<g id="surface1">
<path style="fill-rule:nonzero;fill:rgb(96.078431%,82.352941%,28.235294%);fill-opacity:1;stroke-width:2;stroke-linecap:butt;stroke-linejoin:miter;stroke:rgb(100%,100%,100%);stroke-opacity:1;stroke-miterlimit:10;" d="M 47.21875 10 L 87.21875 10 L 87.21875 22 L 47.21875 22 Z M 47.21875 10 "/>
<path style=" stroke:none;fill-rule:nonzero;fill:rgb(40%,40%,40%);fill-opacity:1;" d="M 101.40625 12.96875 C 101.34375 12.203125 101.1875 11.734375 100.8125 11.234375 C 100.140625 10.34375 99.0625 9.859375 97.75 9.859375 C 95.28125 9.859375 93.75 11.625 93.75 14.453125 C 93.75 17.28125 95.265625 19.03125 97.703125 19.03125 C 99.890625 19.03125 101.328125 17.765625 101.4375 15.765625 L 99.6875 15.765625 C 99.5625 16.875 98.875 17.515625 97.75 17.515625 C 96.359375 17.515625 95.546875 16.390625 95.546875 14.484375 C 95.546875 12.546875 96.40625 11.390625 97.8125 11.390625 C 98.859375 11.390625 99.453125 11.890625 99.6875 12.96875 Z M 105.503906 12.15625 C 103.519531 12.15625 102.316406 13.46875 102.316406 15.59375 C 102.316406 17.734375 103.519531 19.03125 105.519531 19.03125 C 107.503906 19.03125 108.722656 17.734375 108.722656 15.640625 C 108.722656 13.453125 107.535156 12.15625 105.503906 12.15625 Z M 105.519531 13.515625 C 106.441406 13.515625 107.035156 14.34375 107.035156 15.625 C 107.035156 16.828125 106.425781 17.671875 105.519531 17.671875 C 104.613281 17.671875 103.988281 16.84375 103.988281 15.59375 C 103.988281 14.34375 104.613281 13.515625 105.519531 13.515625 Z M 112.835938 12.15625 C 110.851562 12.15625 109.648438 13.46875 109.648438 15.59375 C 109.648438 17.734375 110.851562 19.03125 112.851562 19.03125 C 114.835938 19.03125 116.054688 17.734375 116.054688 15.640625 C 116.054688 13.453125 114.867188 12.15625 112.835938 12.15625 Z M 112.851562 13.515625 C 113.773438 13.515625 114.367188 14.34375 114.367188 15.625 C 114.367188 16.828125 113.757812 17.671875 112.851562 17.671875 C 111.945312 17.671875 111.320312 16.84375 111.320312 15.59375 C 111.320312 14.34375 111.945312 13.515625 112.851562 13.515625 Z M 118.949219 14.796875 L 118.949219 10 L 117.261719 10 L 117.261719 18.75 L 118.949219 18.75 L 118.949219 16.625 L 119.621094 15.890625 L 121.167969 18.75 L 123.136719 18.75 L 120.777344 14.71875 L 122.980469 12.265625 L 121.074219 12.265625 Z M 125.703125 12.265625 L 124.015625 12.265625 L 124.015625 18.75 L 125.703125 18.75 Z M 125.703125 10 L 124.015625 10 L 124.015625 11.5 L 125.703125 11.5 Z M 127.304688 12.265625 L 127.304688 18.75 L 128.992188 18.75 L 128.992188 14.859375 C 128.992188 14.09375 129.523438 13.59375 130.351562 13.59375 C 131.070312 13.59375 131.429688 13.984375 131.429688 14.75 L 131.429688 18.75 L 133.101562 18.75 L 133.101562 14.40625 C 133.101562 12.96875 132.320312 12.15625 130.929688 12.15625 C 130.054688 12.15625 129.476562 12.46875 128.992188 13.203125 L 128.992188 12.265625 Z M 138.660156 12.265625 L 138.660156 13.265625 C 138.191406 12.515625 137.675781 12.15625 136.988281 12.15625 C 136.425781 12.15625 135.785156 12.453125 135.332031 12.921875 C 134.691406 13.59375 134.347656 14.53125 134.347656 15.671875 C 134.347656 17.65625 135.410156 19.03125 136.957031 19.03125 C 137.660156 19.03125 138.082031 18.796875 138.660156 18.09375 L 138.660156 18.96875 C 138.660156 19.75 138.113281 20.28125 137.316406 20.28125 C 136.722656 20.28125 136.347656 20.015625 136.222656 19.53125 L 134.488281 19.53125 C 134.503906 20.03125 134.675781 20.375 135.128906 20.734375 C 135.644531 21.15625 136.347656 21.359375 137.253906 21.359375 C 139.128906 21.359375 140.253906 20.46875 140.253906 18.96875 L 140.253906 12.265625 Z M 137.300781 13.5625 C 138.097656 13.5625 138.691406 14.4375 138.691406 15.640625 C 138.691406 16.8125 138.128906 17.625 137.285156 17.625 C 136.550781 17.625 136.035156 16.8125 136.035156 15.640625 C 136.035156 14.421875 136.550781 13.5625 137.300781 13.5625 Z M 93.21875 10 "/>
<path style="fill-rule:nonzero;fill:rgb(89.019608%,54.509804%,51.764706%);fill-opacity:1;stroke-width:2;stroke-linecap:butt;stroke-linejoin:miter;stroke:rgb(100%,100%,100%);stroke-opacity:1;stroke-miterlimit:10;" d="M 151.191406 10 L 191.191406 10 L 191.191406 22 L 151.191406 22 Z M 151.191406 10 "/>
<path style=" stroke:none;fill-rule:nonzero;fill:rgb(40%,40%,40%);fill-opacity:1;" d="M 205.722656 14.046875 L 202.222656 14.046875 L 202.222656 15.546875 L 204.207031 15.546875 C 204.160156 16.03125 204.050781 16.34375 203.785156 16.65625 C 203.347656 17.171875 202.675781 17.484375 201.988281 17.484375 C 200.535156 17.484375 199.488281 16.21875 199.488281 14.421875 C 199.488281 12.53125 200.410156 11.390625 201.941406 11.390625 C 202.566406 11.390625 203.097656 11.578125 203.488281 11.921875 C 203.738281 12.140625 203.878906 12.34375 204.035156 12.796875 L 205.722656 12.796875 C 205.503906 10.984375 204.050781 9.859375 201.925781 9.859375 C 199.410156 9.859375 197.691406 11.71875 197.691406 14.4375 C 197.691406 17.09375 199.425781 19.03125 201.785156 19.03125 C 202.957031 19.03125 203.753906 18.609375 204.425781 17.625 L 204.644531 18.78125 L 205.722656 18.78125 Z M 210.160156 12.15625 C 208.175781 12.15625 206.972656 13.46875 206.972656 15.59375 C 206.972656 17.734375 208.175781 19.03125 210.175781 19.03125 C 212.160156 19.03125 213.378906 17.734375 213.378906 15.640625 C 213.378906 13.453125 212.191406 12.15625 210.160156 12.15625 Z M 210.175781 13.515625 C 211.097656 13.515625 211.691406 14.34375 211.691406 15.625 C 211.691406 16.828125 211.082031 17.671875 210.175781 17.671875 C 209.269531 17.671875 208.644531 16.84375 208.644531 15.59375 C 208.644531 14.34375 209.269531 13.515625 210.175781 13.515625 Z M 216.367188 12.265625 L 214.679688 12.265625 L 214.679688 18.75 L 216.367188 18.75 Z M 216.367188 10 L 214.679688 10 L 214.679688 11.5 L 216.367188 11.5 Z M 217.96875 12.265625 L 217.96875 18.75 L 219.65625 18.75 L 219.65625 14.859375 C 219.65625 14.09375 220.1875 13.59375 221.015625 13.59375 C 221.734375 13.59375 222.09375 13.984375 222.09375 14.75 L 222.09375 18.75 L 223.765625 18.75 L 223.765625 14.40625 C 223.765625 12.96875 222.984375 12.15625 221.59375 12.15625 C 220.71875 12.15625 220.140625 12.46875 219.65625 13.203125 L 219.65625 12.265625 Z M 229.324219 12.265625 L 229.324219 13.265625 C 228.855469 12.515625 228.339844 12.15625 227.652344 12.15625 C 227.089844 12.15625 226.449219 12.453125 225.996094 12.921875 C 225.355469 13.59375 225.011719 14.53125 225.011719 15.671875 C 225.011719 17.65625 226.074219 19.03125 227.621094 19.03125 C 228.324219 19.03125 228.746094 18.796875 229.324219 18.09375 L 229.324219 18.96875 C 229.324219 19.75 228.777344 20.28125 227.980469 20.28125 C 227.386719 20.28125 227.011719 20.015625 226.886719 19.53125 L 225.152344 19.53125 C 225.167969 20.03125 225.339844 20.375 225.792969 20.734375 C 226.308594 21.15625 227.011719 21.359375 227.917969 21.359375 C 229.792969 21.359375 230.917969 20.46875 230.917969 18.96875 L 230.917969 12.265625 Z M 227.964844 13.5625 C 228.761719 13.5625 229.355469 14.4375 229.355469 15.640625 C 229.355469 16.8125 228.792969 17.625 227.949219 17.625 C 227.214844 17.625 226.699219 16.8125 226.699219 15.640625 C 226.699219 14.421875 227.214844 13.5625 227.964844 13.5625 Z M 238.804688 12.15625 C 236.820312 12.15625 235.617188 13.46875 235.617188 15.59375 C 235.617188 17.734375 236.820312 19.03125 238.820312 19.03125 C 240.804688 19.03125 242.023438 17.734375 242.023438 15.640625 C 242.023438 13.453125 240.835938 12.15625 238.804688 12.15625 Z M 238.820312 13.515625 C 239.742188 13.515625 240.335938 14.34375 240.335938 15.625 C 240.335938 16.828125 239.726562 17.671875 238.820312 17.671875 C 237.914062 17.671875 237.289062 16.84375 237.289062 15.59375 C 237.289062 14.34375 237.914062 13.515625 238.820312 13.515625 Z M 243.277344 12.265625 L 243.277344 18.75 L 244.964844 18.75 L 244.964844 14.859375 C 244.964844 14.09375 245.496094 13.59375 246.324219 13.59375 C 247.042969 13.59375 247.402344 13.984375 247.402344 14.75 L 247.402344 18.75 L 249.074219 18.75 L 249.074219 14.40625 C 249.074219 12.96875 248.292969 12.15625 246.902344 12.15625 C 246.027344 12.15625 245.449219 12.46875 244.964844 13.203125 L 244.964844 12.265625 Z M 260.554688 18.75 L 262.382812 12.265625 L 260.648438 12.265625 L 259.664062 16.8125 L 258.695312 12.265625 L 257.007812 12.265625 L 256.023438 16.8125 L 254.992188 12.265625 L 253.257812 12.265625 L 255.085938 18.75 L 256.804688 18.75 L 257.835938 14.171875 L 258.804688 18.75 Z M 268.71875 18.546875 C 268.4375 18.265625 268.34375 18.078125 268.34375 17.75 L 268.34375 14.15625 C 268.34375 12.828125 267.4375 12.15625 265.6875 12.15625 C 263.9375 12.15625 263.03125 12.90625 262.921875 14.40625 L 264.53125 14.40625 C 264.625 13.734375 264.890625 13.515625 265.71875 13.515625 C 266.375 13.515625 266.703125 13.734375 266.703125 14.171875 C 266.703125 14.375 266.59375 14.5625 266.40625 14.671875 C 266.1875 14.796875 266.1875 14.796875 265.359375 14.921875 L 264.6875 15.046875 C 263.390625 15.265625 262.78125 15.921875 262.78125 17.078125 C 262.78125 18.25 263.546875 19.03125 264.734375 19.03125 C 265.46875 19.03125 266.109375 18.71875 266.703125 18.109375 C 266.703125 18.4375 266.75 18.5625 266.90625 18.75 L 268.71875 18.75 Z M 266.703125 16.140625 C 266.703125 17.125 266.21875 17.671875 265.359375 17.671875 C 264.796875 17.671875 264.453125 17.375 264.453125 16.890625 C 264.453125 16.390625 264.71875 16.140625 265.40625 16 L 265.984375 15.890625 C 266.4375 15.8125 266.5 15.78125 266.703125 15.6875 Z M 271.59375 10 L 269.90625 10 L 269.90625 18.75 L 271.59375 18.75 Z M 274.835938 14.796875 L 274.835938 10 L 273.148438 10 L 273.148438 18.75 L 274.835938 18.75 L 274.835938 16.625 L 275.507812 15.890625 L 277.054688 18.75 L 279.023438 18.75 L 276.664062 14.71875 L 278.867188 12.265625 L 276.960938 12.265625 Z M 285.058594 14.359375 C 285.027344 12.984375 283.980469 12.15625 282.230469 12.15625 C 280.589844 12.15625 279.574219 12.984375 279.574219 14.328125 C 279.574219 14.75 279.699219 15.125 279.933594 15.375 C 280.152344 15.609375 280.371094 15.71875 280.980469 15.921875 L 282.996094 16.546875 C 283.417969 16.671875 283.558594 16.8125 283.558594 17.0625 C 283.558594 17.46875 283.089844 17.703125 282.308594 17.703125 C 281.871094 17.703125 281.527344 17.640625 281.308594 17.484375 C 281.136719 17.34375 281.058594 17.21875 280.980469 16.859375 L 279.339844 16.859375 C 279.386719 18.296875 280.433594 19.03125 282.402344 19.03125 C 283.308594 19.03125 283.980469 18.828125 284.464844 18.453125 C 284.949219 18.0625 285.230469 17.46875 285.230469 16.828125 C 285.230469 15.984375 284.808594 15.453125 283.964844 15.203125 L 281.839844 14.59375 C 281.371094 14.4375 281.246094 14.34375 281.246094 14.078125 C 281.246094 13.71875 281.636719 13.484375 282.230469 13.484375 C 283.027344 13.484375 283.417969 13.765625 283.433594 14.359375 Z M 292.613281 12.40625 L 291.675781 12.40625 L 291.675781 10.65625 L 290.003906 10.65625 L 290.003906 12.40625 L 289.175781 12.40625 L 289.175781 13.515625 L 290.003906 13.515625 L 290.003906 17.5 C 290.003906 18.515625 290.535156 19.03125 291.644531 19.03125 C 292.035156 19.03125 292.300781 18.984375 292.613281 18.890625 L 292.613281 17.71875 C 292.441406 17.734375 292.363281 17.75 292.238281 17.75 C 291.785156 17.75 291.675781 17.625 291.675781 17.046875 L 291.675781 13.515625 L 292.613281 13.515625 Z M 296.488281 12.15625 C 294.503906 12.15625 293.300781 13.46875 293.300781 15.59375 C 293.300781 17.734375 294.503906 19.03125 296.503906 19.03125 C 298.488281 19.03125 299.707031 17.734375 299.707031 15.640625 C 299.707031 13.453125 298.519531 12.15625 296.488281 12.15625 Z M 296.503906 13.515625 C 297.425781 13.515625 298.019531 14.34375 298.019531 15.625 C 298.019531 16.828125 297.410156 17.671875 296.503906 17.671875 C 295.597656 17.671875 294.972656 16.84375 294.972656 15.59375 C 294.972656 14.34375 295.597656 13.515625 296.503906 13.515625 Z M 304.296875 12.265625 L 304.296875 18.75 L 305.984375 18.75 L 305.984375 14.859375 C 305.984375 14.09375 306.515625 13.59375 307.34375 13.59375 C 308.0625 13.59375 308.421875 13.984375 308.421875 14.75 L 308.421875 18.75 L 310.09375 18.75 L 310.09375 14.40625 C 310.09375 12.96875 309.3125 12.15625 307.921875 12.15625 C 307.046875 12.15625 306.46875 12.46875 305.984375 13.203125 L 305.984375 12.265625 Z M 314.488281 12.15625 C 312.503906 12.15625 311.300781 13.46875 311.300781 15.59375 C 311.300781 17.734375 312.503906 19.03125 314.503906 19.03125 C 316.488281 19.03125 317.707031 17.734375 317.707031 15.640625 C 317.707031 13.453125 316.519531 12.15625 314.488281 12.15625 Z M 314.503906 13.515625 C 315.425781 13.515625 316.019531 14.34375 316.019531 15.625 C 316.019531 16.828125 315.410156 17.671875 314.503906 17.671875 C 313.597656 17.671875 312.972656 16.84375 312.972656 15.59375 C 312.972656 14.34375 313.597656 13.515625 314.503906 13.515625 Z M 325.414062 18.75 L 327.242188 12.265625 L 325.507812 12.265625 L 324.523438 16.8125 L 323.554688 12.265625 L 321.867188 12.265625 L 320.882812 16.8125 L 319.851562 12.265625 L 318.117188 12.265625 L 319.945312 18.75 L 321.664062 18.75 L 322.695312 14.171875 L 323.664062 18.75 Z M 328.1875 10 L 328.1875 18.75 L 329.875 18.75 L 329.875 14.859375 C 329.875 14.125 330.421875 13.59375 331.171875 13.59375 C 331.546875 13.59375 331.8125 13.71875 332.015625 13.984375 C 332.171875 14.203125 332.203125 14.375 332.203125 14.796875 L 332.203125 18.75 L 333.875 18.75 L 333.875 14.40625 C 333.875 13.609375 333.671875 13.03125 333.21875 12.65625 C 332.84375 12.34375 332.3125 12.15625 331.765625 12.15625 C 330.9375 12.15625 330.34375 12.484375 329.875 13.203125 L 329.875 10 Z M 341.003906 16.03125 C 341.019531 15.890625 341.019531 15.828125 341.019531 15.75 C 341.019531 15.109375 340.925781 14.5 340.769531 14.046875 C 340.332031 12.875 339.300781 12.15625 337.988281 12.15625 C 336.128906 12.15625 334.988281 13.5 334.988281 15.671875 C 334.988281 17.75 336.113281 19.03125 337.957031 19.03125 C 339.410156 19.03125 340.582031 18.203125 340.957031 16.921875 L 339.300781 16.921875 C 339.097656 17.4375 338.628906 17.734375 338.003906 17.734375 C 337.535156 17.734375 337.144531 17.53125 336.910156 17.171875 C 336.753906 16.9375 336.691406 16.65625 336.660156 16.03125 Z M 336.691406 14.921875 C 336.800781 13.921875 337.222656 13.453125 337.957031 13.453125 C 338.738281 13.453125 339.191406 13.96875 339.269531 14.921875 Z M 342.144531 12.265625 L 342.144531 18.75 L 343.832031 18.75 L 343.832031 15.3125 C 343.832031 14.328125 344.316406 13.828125 345.300781 13.828125 C 345.488281 13.828125 345.613281 13.84375 345.832031 13.875 L 345.832031 12.171875 C 345.738281 12.15625 345.707031 12.15625 345.628906 12.15625 C 344.863281 12.15625 344.207031 12.671875 343.832031 13.546875 L 343.832031 12.265625 Z M 352.390625 16.03125 C 352.40625 15.890625 352.40625 15.828125 352.40625 15.75 C 352.40625 15.109375 352.3125 14.5 352.15625 14.046875 C 351.71875 12.875 350.6875 12.15625 349.375 12.15625 C 347.515625 12.15625 346.375 13.5 346.375 15.671875 C 346.375 17.75 347.5 19.03125 349.34375 19.03125 C 350.796875 19.03125 351.96875 18.203125 352.34375 16.921875 L 350.6875 16.921875 C 350.484375 17.4375 350.015625 17.734375 349.390625 17.734375 C 348.921875 17.734375 348.53125 17.53125 348.296875 17.171875 C 348.140625 16.9375 348.078125 16.65625 348.046875 16.03125 Z M 348.078125 14.921875 C 348.1875 13.921875 348.609375 13.453125 349.34375 13.453125 C 350.125 13.453125 350.578125 13.96875 350.65625 14.921875 Z M 197.191406 10 "/>
<path style="fill-rule:nonzero;fill:rgb(12.54902%,36.862745%,44.313725%);fill-opacity:1;stroke-width:2;stroke-linecap:butt;stroke-linejoin:miter;stroke:rgb(100%,100%,100%);stroke-opacity:1;stroke-miterlimit:10;" d="M 32.492188 32 L 72.492188 32 L 72.492188 44 L 32.492188 44 Z M 32.492188 32 "/>
<path style=" stroke:none;fill-rule:nonzero;fill:rgb(40%,40%,40%);fill-opacity:1;" d="M 81.242188 36.984375 L 85.429688 36.984375 L 85.429688 35.484375 L 81.242188 35.484375 L 81.242188 33.5 L 85.757812 33.5 L 85.757812 32 L 79.445312 32 L 79.445312 40.75 L 85.976562 40.75 L 85.976562 39.25 L 81.242188 39.25 Z M 92.789062 40.546875 C 92.507812 40.265625 92.414062 40.078125 92.414062 39.75 L 92.414062 36.15625 C 92.414062 34.828125 91.507812 34.15625 89.757812 34.15625 C 88.007812 34.15625 87.101562 34.90625 86.992188 36.40625 L 88.601562 36.40625 C 88.695312 35.734375 88.960938 35.515625 89.789062 35.515625 C 90.445312 35.515625 90.773438 35.734375 90.773438 36.171875 C 90.773438 36.375 90.664062 36.5625 90.476562 36.671875 C 90.257812 36.796875 90.257812 36.796875 89.429688 36.921875 L 88.757812 37.046875 C 87.460938 37.265625 86.851562 37.921875 86.851562 39.078125 C 86.851562 40.25 87.617188 41.03125 88.804688 41.03125 C 89.539062 41.03125 90.179688 40.71875 90.773438 40.109375 C 90.773438 40.4375 90.820312 40.5625 90.976562 40.75 L 92.789062 40.75 Z M 90.773438 38.140625 C 90.773438 39.125 90.289062 39.671875 89.429688 39.671875 C 88.867188 39.671875 88.523438 39.375 88.523438 38.890625 C 88.523438 38.390625 88.789062 38.140625 89.476562 38 L 90.054688 37.890625 C 90.507812 37.8125 90.570312 37.78125 90.773438 37.6875 Z M 96.753906 34.40625 L 95.816406 34.40625 L 95.816406 32.65625 L 94.144531 32.65625 L 94.144531 34.40625 L 93.316406 34.40625 L 93.316406 35.515625 L 94.144531 35.515625 L 94.144531 39.5 C 94.144531 40.515625 94.675781 41.03125 95.785156 41.03125 C 96.175781 41.03125 96.441406 40.984375 96.753906 40.890625 L 96.753906 39.71875 C 96.582031 39.734375 96.503906 39.75 96.378906 39.75 C 95.925781 39.75 95.816406 39.625 95.816406 39.046875 L 95.816406 35.515625 L 96.753906 35.515625 Z M 99.601562 34.265625 L 97.914062 34.265625 L 97.914062 40.75 L 99.601562 40.75 Z M 99.601562 32 L 97.914062 32 L 97.914062 33.5 L 99.601562 33.5 Z M 101.203125 34.265625 L 101.203125 40.75 L 102.890625 40.75 L 102.890625 36.859375 C 102.890625 36.09375 103.421875 35.59375 104.25 35.59375 C 104.96875 35.59375 105.328125 35.984375 105.328125 36.75 L 105.328125 40.75 L 107 40.75 L 107 36.40625 C 107 34.96875 106.21875 34.15625 104.828125 34.15625 C 103.953125 34.15625 103.375 34.46875 102.890625 35.203125 L 102.890625 34.265625 Z M 112.554688 34.265625 L 112.554688 35.265625 C 112.085938 34.515625 111.570312 34.15625 110.882812 34.15625 C 110.320312 34.15625 109.679688 34.453125 109.226562 34.921875 C 108.585938 35.59375 108.242188 36.53125 108.242188 37.671875 C 108.242188 39.65625 109.304688 41.03125 110.851562 41.03125 C 111.554688 41.03125 111.976562 40.796875 112.554688 40.09375 L 112.554688 40.96875 C 112.554688 41.75 112.007812 42.28125 111.210938 42.28125 C 110.617188 42.28125 110.242188 42.015625 110.117188 41.53125 L 108.382812 41.53125 C 108.398438 42.03125 108.570312 42.375 109.023438 42.734375 C 109.539062 43.15625 110.242188 43.359375 111.148438 43.359375 C 113.023438 43.359375 114.148438 42.46875 114.148438 40.96875 L 114.148438 34.265625 Z M 111.195312 35.5625 C 111.992188 35.5625 112.585938 36.4375 112.585938 37.640625 C 112.585938 38.8125 112.023438 39.625 111.179688 39.625 C 110.445312 39.625 109.929688 38.8125 109.929688 37.640625 C 109.929688 36.421875 110.445312 35.5625 111.195312 35.5625 Z M 120.910156 34.265625 L 119.222656 34.265625 L 119.222656 40.75 L 120.910156 40.75 Z M 120.910156 32 L 119.222656 32 L 119.222656 33.5 L 120.910156 33.5 Z M 128.027344 36.6875 C 127.902344 35.109375 126.855469 34.15625 125.230469 34.15625 C 123.292969 34.15625 122.167969 35.4375 122.167969 37.640625 C 122.167969 39.78125 123.292969 41.03125 125.199219 41.03125 C 126.777344 41.03125 127.871094 40.046875 128.027344 38.5 L 126.417969 38.5 C 126.214844 39.34375 125.871094 39.671875 125.199219 39.671875 C 124.355469 39.671875 123.855469 38.90625 123.855469 37.640625 C 123.855469 37.015625 123.964844 36.453125 124.167969 36.0625 C 124.371094 35.703125 124.730469 35.515625 125.214844 35.515625 C 125.902344 35.515625 126.230469 35.84375 126.417969 36.6875 Z M 134.800781 38.03125 C 134.816406 37.890625 134.816406 37.828125 134.816406 37.75 C 134.816406 37.109375 134.722656 36.5 134.566406 36.046875 C 134.128906 34.875 133.097656 34.15625 131.785156 34.15625 C 129.925781 34.15625 128.785156 35.5 128.785156 37.671875 C 128.785156 39.75 129.910156 41.03125 131.753906 41.03125 C 133.207031 41.03125 134.378906 40.203125 134.753906 38.921875 L 133.097656 38.921875 C 132.894531 39.4375 132.425781 39.734375 131.800781 39.734375 C 131.332031 39.734375 130.941406 39.53125 130.707031 39.171875 C 130.550781 38.9375 130.488281 38.65625 130.457031 38.03125 Z M 130.488281 36.921875 C 130.597656 35.921875 131.019531 35.453125 131.753906 35.453125 C 132.535156 35.453125 132.988281 35.96875 133.066406 36.921875 Z M 144.792969 36.6875 C 144.667969 35.109375 143.621094 34.15625 141.996094 34.15625 C 140.058594 34.15625 138.933594 35.4375 138.933594 37.640625 C 138.933594 39.78125 140.058594 41.03125 141.964844 41.03125 C 143.542969 41.03125 144.636719 40.046875 144.792969 38.5 L 143.183594 38.5 C 142.980469 39.34375 142.636719 39.671875 141.964844 39.671875 C 141.121094 39.671875 140.621094 38.90625 140.621094 37.640625 C 140.621094 37.015625 140.730469 36.453125 140.933594 36.0625 C 141.136719 35.703125 141.496094 35.515625 141.980469 35.515625 C 142.667969 35.515625 142.996094 35.84375 143.183594 36.6875 Z M 145.949219 34.265625 L 145.949219 40.75 L 147.636719 40.75 L 147.636719 37.3125 C 147.636719 36.328125 148.121094 35.828125 149.105469 35.828125 C 149.292969 35.828125 149.417969 35.84375 149.636719 35.875 L 149.636719 34.171875 C 149.542969 34.15625 149.511719 34.15625 149.433594 34.15625 C 148.667969 34.15625 148.011719 34.671875 147.636719 35.546875 L 147.636719 34.265625 Z M 156.195312 38.03125 C 156.210938 37.890625 156.210938 37.828125 156.210938 37.75 C 156.210938 37.109375 156.117188 36.5 155.960938 36.046875 C 155.523438 34.875 154.492188 34.15625 153.179688 34.15625 C 151.320312 34.15625 150.179688 35.5 150.179688 37.671875 C 150.179688 39.75 151.304688 41.03125 153.148438 41.03125 C 154.601562 41.03125 155.773438 40.203125 156.148438 38.921875 L 154.492188 38.921875 C 154.289062 39.4375 153.820312 39.734375 153.195312 39.734375 C 152.726562 39.734375 152.335938 39.53125 152.101562 39.171875 C 151.945312 38.9375 151.882812 38.65625 151.851562 38.03125 Z M 151.882812 36.921875 C 151.992188 35.921875 152.414062 35.453125 153.148438 35.453125 C 153.929688 35.453125 154.382812 35.96875 154.460938 36.921875 Z M 162.925781 40.546875 C 162.644531 40.265625 162.550781 40.078125 162.550781 39.75 L 162.550781 36.15625 C 162.550781 34.828125 161.644531 34.15625 159.894531 34.15625 C 158.144531 34.15625 157.238281 34.90625 157.128906 36.40625 L 158.738281 36.40625 C 158.832031 35.734375 159.097656 35.515625 159.925781 35.515625 C 160.582031 35.515625 160.910156 35.734375 160.910156 36.171875 C 160.910156 36.375 160.800781 36.5625 160.613281 36.671875 C 160.394531 36.796875 160.394531 36.796875 159.566406 36.921875 L 158.894531 37.046875 C 157.597656 37.265625 156.988281 37.921875 156.988281 39.078125 C 156.988281 40.25 157.753906 41.03125 158.941406 41.03125 C 159.675781 41.03125 160.316406 40.71875 160.910156 40.109375 C 160.910156 40.4375 160.957031 40.5625 161.113281 40.75 L 162.925781 40.75 Z M 160.910156 38.140625 C 160.910156 39.125 160.425781 39.671875 159.566406 39.671875 C 159.003906 39.671875 158.660156 39.375 158.660156 38.890625 C 158.660156 38.390625 158.925781 38.140625 159.613281 38 L 160.191406 37.890625 C 160.644531 37.8125 160.707031 37.78125 160.910156 37.6875 Z M 164.035156 34.265625 L 164.035156 40.75 L 165.722656 40.75 L 165.722656 36.859375 C 165.722656 36.0625 166.144531 35.59375 166.863281 35.59375 C 167.425781 35.59375 167.785156 35.90625 167.785156 36.4375 L 167.785156 40.75 L 169.457031 40.75 L 169.457031 36.859375 C 169.457031 36.0625 169.894531 35.59375 170.613281 35.59375 C 171.175781 35.59375 171.519531 35.90625 171.519531 36.4375 L 171.519531 40.75 L 173.207031 40.75 L 173.207031 36.171875 C 173.207031 34.90625 172.441406 34.15625 171.144531 34.15625 C 170.316406 34.15625 169.753906 34.453125 169.238281 35.125 C 168.925781 34.515625 168.285156 34.15625 167.472656 34.15625 C 166.738281 34.15625 166.253906 34.40625 165.707031 35.078125 L 165.707031 34.265625 Z M 78.492188 32 "/>
<path style="fill-rule:nonzero;fill:rgb(39.215686%,90.980392%,23.529412%);fill-opacity:1;stroke-width:2;stroke-linecap:butt;stroke-linejoin:miter;stroke:rgb(100%,100%,100%);stroke-opacity:1;stroke-miterlimit:10;" d="M 183.988281 32 L 223.988281 32 L 223.988281 44 L 183.988281 44 Z M 183.988281 32 "/>
<path style=" stroke:none;fill-rule:nonzero;fill:rgb(40%,40%,40%);fill-opacity:1;" d="M 238.753906 40.75 L 241.175781 32 L 239.269531 32 L 237.957031 38.5625 L 236.535156 32 L 234.769531 32 L 233.410156 38.546875 L 232.050781 32 L 230.144531 32 L 232.613281 40.75 L 234.238281 40.75 L 235.660156 33.921875 L 237.128906 40.75 Z M 241.765625 34.265625 L 241.765625 40.75 L 243.453125 40.75 L 243.453125 37.3125 C 243.453125 36.328125 243.9375 35.828125 244.921875 35.828125 C 245.109375 35.828125 245.234375 35.84375 245.453125 35.875 L 245.453125 34.171875 C 245.359375 34.15625 245.328125 34.15625 245.25 34.15625 C 244.484375 34.15625 243.828125 34.671875 243.453125 35.546875 L 243.453125 34.265625 Z M 248.109375 34.265625 L 246.421875 34.265625 L 246.421875 40.75 L 248.109375 40.75 Z M 248.109375 32 L 246.421875 32 L 246.421875 33.5 L 248.109375 33.5 Z M 252.570312 34.40625 L 251.632812 34.40625 L 251.632812 32.65625 L 249.960938 32.65625 L 249.960938 34.40625 L 249.132812 34.40625 L 249.132812 35.515625 L 249.960938 35.515625 L 249.960938 39.5 C 249.960938 40.515625 250.492188 41.03125 251.601562 41.03125 C 251.992188 41.03125 252.257812 40.984375 252.570312 40.890625 L 252.570312 39.71875 C 252.398438 39.734375 252.320312 39.75 252.195312 39.75 C 251.742188 39.75 251.632812 39.625 251.632812 39.046875 L 251.632812 35.515625 L 252.570312 35.515625 Z M 255.417969 34.265625 L 253.730469 34.265625 L 253.730469 40.75 L 255.417969 40.75 Z M 255.417969 32 L 253.730469 32 L 253.730469 33.5 L 255.417969 33.5 Z M 257.019531 34.265625 L 257.019531 40.75 L 258.707031 40.75 L 258.707031 36.859375 C 258.707031 36.09375 259.238281 35.59375 260.066406 35.59375 C 260.785156 35.59375 261.144531 35.984375 261.144531 36.75 L 261.144531 40.75 L 262.816406 40.75 L 262.816406 36.40625 C 262.816406 34.96875 262.035156 34.15625 260.644531 34.15625 C 259.769531 34.15625 259.191406 34.46875 258.707031 35.203125 L 258.707031 34.265625 Z M 268.375 34.265625 L 268.375 35.265625 C 267.90625 34.515625 267.390625 34.15625 266.703125 34.15625 C 266.140625 34.15625 265.5 34.453125 265.046875 34.921875 C 264.40625 35.59375 264.0625 36.53125 264.0625 37.671875 C 264.0625 39.65625 265.125 41.03125 266.671875 41.03125 C 267.375 41.03125 267.796875 40.796875 268.375 40.09375 L 268.375 40.96875 C 268.375 41.75 267.828125 42.28125 267.03125 42.28125 C 266.4375 42.28125 266.0625 42.015625 265.9375 41.53125 L 264.203125 41.53125 C 264.21875 42.03125 264.390625 42.375 264.84375 42.734375 C 265.359375 43.15625 266.0625 43.359375 266.96875 43.359375 C 268.84375 43.359375 269.96875 42.46875 269.96875 40.96875 L 269.96875 34.265625 Z M 267.015625 35.5625 C 267.8125 35.5625 268.40625 36.4375 268.40625 37.640625 C 268.40625 38.8125 267.84375 39.625 267 39.625 C 266.265625 39.625 265.75 38.8125 265.75 37.640625 C 265.75 36.421875 266.265625 35.5625 267.015625 35.5625 Z M 276.617188 34.265625 L 274.945312 34.265625 L 274.945312 43.359375 L 276.617188 43.359375 L 276.617188 39.984375 C 277.023438 40.703125 277.601562 41.03125 278.414062 41.03125 C 279.976562 41.03125 281.132812 39.578125 281.132812 37.609375 C 281.132812 36.6875 280.867188 35.78125 280.429688 35.1875 C 280.007812 34.5625 279.195312 34.15625 278.414062 34.15625 C 277.601562 34.15625 277.023438 34.515625 276.617188 35.234375 Z M 278.039062 35.5625 C 278.882812 35.5625 279.445312 36.375 279.445312 37.625 C 279.445312 38.8125 278.867188 39.640625 278.039062 39.640625 C 277.179688 39.640625 276.617188 38.8125 276.617188 37.609375 C 276.617188 36.375 277.179688 35.5625 278.039062 35.5625 Z M 282.328125 34.265625 L 282.328125 40.75 L 284.015625 40.75 L 284.015625 37.3125 C 284.015625 36.328125 284.5 35.828125 285.484375 35.828125 C 285.671875 35.828125 285.796875 35.84375 286.015625 35.875 L 286.015625 34.171875 C 285.921875 34.15625 285.890625 34.15625 285.8125 34.15625 C 285.046875 34.15625 284.390625 34.671875 284.015625 35.546875 L 284.015625 34.265625 Z M 288.667969 34.265625 L 286.980469 34.265625 L 286.980469 40.75 L 288.667969 40.75 Z M 288.667969 32 L 286.980469 32 L 286.980469 33.5 L 288.667969 33.5 Z M 290.269531 34.265625 L 290.269531 40.75 L 291.957031 40.75 L 291.957031 36.859375 C 291.957031 36.09375 292.488281 35.59375 293.316406 35.59375 C 294.035156 35.59375 294.394531 35.984375 294.394531 36.75 L 294.394531 40.75 L 296.066406 40.75 L 296.066406 36.40625 C 296.066406 34.96875 295.285156 34.15625 293.894531 34.15625 C 293.019531 34.15625 292.441406 34.46875 291.957031 35.203125 L 291.957031 34.265625 Z M 300.460938 34.40625 L 299.523438 34.40625 L 299.523438 32.65625 L 297.851562 32.65625 L 297.851562 34.40625 L 297.023438 34.40625 L 297.023438 35.515625 L 297.851562 35.515625 L 297.851562 39.5 C 297.851562 40.515625 298.382812 41.03125 299.492188 41.03125 C 299.882812 41.03125 300.148438 40.984375 300.460938 40.890625 L 300.460938 39.71875 C 300.289062 39.734375 300.210938 39.75 300.085938 39.75 C 299.632812 39.75 299.523438 39.625 299.523438 39.046875 L 299.523438 35.515625 L 300.460938 35.515625 Z M 310.246094 36.359375 C 310.214844 34.984375 309.167969 34.15625 307.417969 34.15625 C 305.777344 34.15625 304.761719 34.984375 304.761719 36.328125 C 304.761719 36.75 304.886719 37.125 305.121094 37.375 C 305.339844 37.609375 305.558594 37.71875 306.167969 37.921875 L 308.183594 38.546875 C 308.605469 38.671875 308.746094 38.8125 308.746094 39.0625 C 308.746094 39.46875 308.277344 39.703125 307.496094 39.703125 C 307.058594 39.703125 306.714844 39.640625 306.496094 39.484375 C 306.324219 39.34375 306.246094 39.21875 306.167969 38.859375 L 304.527344 38.859375 C 304.574219 40.296875 305.621094 41.03125 307.589844 41.03125 C 308.496094 41.03125 309.167969 40.828125 309.652344 40.453125 C 310.136719 40.0625 310.417969 39.46875 310.417969 38.828125 C 310.417969 37.984375 309.996094 37.453125 309.152344 37.203125 L 307.027344 36.59375 C 306.558594 36.4375 306.433594 36.34375 306.433594 36.078125 C 306.433594 35.71875 306.824219 35.484375 307.417969 35.484375 C 308.214844 35.484375 308.605469 35.765625 308.621094 36.359375 Z M 314.453125 34.40625 L 313.515625 34.40625 L 313.515625 32.65625 L 311.84375 32.65625 L 311.84375 34.40625 L 311.015625 34.40625 L 311.015625 35.515625 L 311.84375 35.515625 L 311.84375 39.5 C 311.84375 40.515625 312.375 41.03125 313.484375 41.03125 C 313.875 41.03125 314.140625 40.984375 314.453125 40.890625 L 314.453125 39.71875 C 314.28125 39.734375 314.203125 39.75 314.078125 39.75 C 313.625 39.75 313.515625 39.625 313.515625 39.046875 L 313.515625 35.515625 L 314.453125 35.515625 Z M 321.179688 40.546875 C 320.898438 40.265625 320.804688 40.078125 320.804688 39.75 L 320.804688 36.15625 C 320.804688 34.828125 319.898438 34.15625 318.148438 34.15625 C 316.398438 34.15625 315.492188 34.90625 315.382812 36.40625 L 316.992188 36.40625 C 317.085938 35.734375 317.351562 35.515625 318.179688 35.515625 C 318.835938 35.515625 319.164062 35.734375 319.164062 36.171875 C 319.164062 36.375 319.054688 36.5625 318.867188 36.671875 C 318.648438 36.796875 318.648438 36.796875 317.820312 36.921875 L 317.148438 37.046875 C 315.851562 37.265625 315.242188 37.921875 315.242188 39.078125 C 315.242188 40.25 316.007812 41.03125 317.195312 41.03125 C 317.929688 41.03125 318.570312 40.71875 319.164062 40.109375 C 319.164062 40.4375 319.210938 40.5625 319.367188 40.75 L 321.179688 40.75 Z M 319.164062 38.140625 C 319.164062 39.125 318.679688 39.671875 317.820312 39.671875 C 317.257812 39.671875 316.914062 39.375 316.914062 38.890625 C 316.914062 38.390625 317.179688 38.140625 317.867188 38 L 318.445312 37.890625 C 318.898438 37.8125 318.960938 37.78125 319.164062 37.6875 Z M 325.144531 34.40625 L 324.207031 34.40625 L 324.207031 32.65625 L 322.535156 32.65625 L 322.535156 34.40625 L 321.707031 34.40625 L 321.707031 35.515625 L 322.535156 35.515625 L 322.535156 39.5 C 322.535156 40.515625 323.066406 41.03125 324.175781 41.03125 C 324.566406 41.03125 324.832031 40.984375 325.144531 40.890625 L 325.144531 39.71875 C 324.972656 39.734375 324.894531 39.75 324.769531 39.75 C 324.316406 39.75 324.207031 39.625 324.207031 39.046875 L 324.207031 35.515625 L 325.144531 35.515625 Z M 331.765625 38.03125 C 331.78125 37.890625 331.78125 37.828125 331.78125 37.75 C 331.78125 37.109375 331.6875 36.5 331.53125 36.046875 C 331.09375 34.875 330.0625 34.15625 328.75 34.15625 C 326.890625 34.15625 325.75 35.5 325.75 37.671875 C 325.75 39.75 326.875 41.03125 328.71875 41.03125 C 330.171875 41.03125 331.34375 40.203125 331.71875 38.921875 L 330.0625 38.921875 C 329.859375 39.4375 329.390625 39.734375 328.765625 39.734375 C 328.296875 39.734375 327.90625 39.53125 327.671875 39.171875 C 327.515625 38.9375 327.453125 38.65625 327.421875 38.03125 Z M 327.453125 36.921875 C 327.5625 35.921875 327.984375 35.453125 328.71875 35.453125 C 329.5 35.453125 329.953125 35.96875 330.03125 36.921875 Z M 332.875 34.265625 L 332.875 40.75 L 334.5625 40.75 L 334.5625 36.859375 C 334.5625 36.0625 334.984375 35.59375 335.703125 35.59375 C 336.265625 35.59375 336.625 35.90625 336.625 36.4375 L 336.625 40.75 L 338.296875 40.75 L 338.296875 36.859375 C 338.296875 36.0625 338.734375 35.59375 339.453125 35.59375 C 340.015625 35.59375 340.359375 35.90625 340.359375 36.4375 L 340.359375 40.75 L 342.046875 40.75 L 342.046875 36.171875 C 342.046875 34.90625 341.28125 34.15625 339.984375 34.15625 C 339.15625 34.15625 338.59375 34.453125 338.078125 35.125 C 337.765625 34.515625 337.125 34.15625 336.3125 34.15625 C 335.578125 34.15625 335.09375 34.40625 334.546875 35.078125 L 334.546875 34.265625 Z M 349.105469 38.03125 C 349.121094 37.890625 349.121094 37.828125 349.121094 37.75 C 349.121094 37.109375 349.027344 36.5 348.871094 36.046875 C 348.433594 34.875 347.402344 34.15625 346.089844 34.15625 C 344.230469 34.15625 343.089844 35.5 343.089844 37.671875 C 343.089844 39.75 344.214844 41.03125 346.058594 41.03125 C 347.511719 41.03125 348.683594 40.203125 349.058594 38.921875 L 347.402344 38.921875 C 347.199219 39.4375 346.730469 39.734375 346.105469 39.734375 C 345.636719 39.734375 345.246094 39.53125 345.011719 39.171875 C 344.855469 38.9375 344.792969 38.65625 344.761719 38.03125 Z M 344.792969 36.921875 C 344.902344 35.921875 345.324219 35.453125 346.058594 35.453125 C 346.839844 35.453125 347.292969 35.96875 347.371094 36.921875 Z M 350.246094 34.265625 L 350.246094 40.75 L 351.933594 40.75 L 351.933594 36.859375 C 351.933594 36.09375 352.464844 35.59375 353.292969 35.59375 C 354.011719 35.59375 354.371094 35.984375 354.371094 36.75 L 354.371094 40.75 L 356.042969 40.75 L 356.042969 36.40625 C 356.042969 34.96875 355.261719 34.15625 353.871094 34.15625 C 352.996094 34.15625 352.417969 34.46875 351.933594 35.203125 L 351.933594 34.265625 Z M 360.4375 34.40625 L 359.5 34.40625 L 359.5 32.65625 L 357.828125 32.65625 L 357.828125 34.40625 L 357 34.40625 L 357 35.515625 L 357.828125 35.515625 L 357.828125 39.5 C 357.828125 40.515625 358.359375 41.03125 359.46875 41.03125 C 359.859375 41.03125 360.125 40.984375 360.4375 40.890625 L 360.4375 39.71875 C 360.265625 39.734375 360.1875 39.75 360.0625 39.75 C 359.609375 39.75 359.5 39.625 359.5 39.046875 L 359.5 35.515625 L 360.4375 35.515625 Z M 366.898438 36.359375 C 366.867188 34.984375 365.820312 34.15625 364.070312 34.15625 C 362.429688 34.15625 361.414062 34.984375 361.414062 36.328125 C 361.414062 36.75 361.539062 37.125 361.773438 37.375 C 361.992188 37.609375 362.210938 37.71875 362.820312 37.921875 L 364.835938 38.546875 C 365.257812 38.671875 365.398438 38.8125 365.398438 39.0625 C 365.398438 39.46875 364.929688 39.703125 364.148438 39.703125 C 363.710938 39.703125 363.367188 39.640625 363.148438 39.484375 C 362.976562 39.34375 362.898438 39.21875 362.820312 38.859375 L 361.179688 38.859375 C 361.226562 40.296875 362.273438 41.03125 364.242188 41.03125 C 365.148438 41.03125 365.820312 40.828125 366.304688 40.453125 C 366.789062 40.0625 367.070312 39.46875 367.070312 38.828125 C 367.070312 37.984375 366.648438 37.453125 365.804688 37.203125 L 363.679688 36.59375 C 363.210938 36.4375 363.085938 36.34375 363.085938 36.078125 C 363.085938 35.71875 363.476562 35.484375 364.070312 35.484375 C 364.867188 35.484375 365.257812 35.765625 365.273438 36.359375 Z M 229.988281 32 "/>
<path style="fill-rule:nonzero;fill:rgb(96.078431%,82.352941%,28.235294%);fill-opacity:1;stroke-width:2;stroke-linecap:butt;stroke-linejoin:bevel;stroke:rgb(100%,100%,100%);stroke-opacity:1;stroke-miterlimit:10;" d="M 200 55 C 249.53125 55 294.148438 84.949219 312.910156 130.789062 C 331.671875 176.628906 320.855469 229.265625 285.535156 263.992188 L 200 177 Z M 200 55 "/>
<path style="fill-rule:nonzero;fill:rgb(89.019608%,54.509804%,51.764706%);fill-opacity:1;stroke-width:2;stroke-linecap:butt;stroke-linejoin:bevel;stroke:rgb(100%,100%,100%);stroke-opacity:1;stroke-miterlimit:10;" d="M 285.535156 263.992188 C 260.675781 288.433594 226.546875 301.074219 191.765625 298.722656 C 156.980469 296.367188 124.867188 279.246094 103.523438 251.675781 L 200 177 Z M 285.535156 263.992188 "/>
<path style="fill-rule:nonzero;fill:rgb(12.54902%,36.862745%,44.313725%);fill-opacity:1;stroke-width:2;stroke-linecap:butt;stroke-linejoin:bevel;stroke:rgb(100%,100%,100%);stroke-opacity:1;stroke-miterlimit:10;" d="M 103.523438 251.675781 C 62.773438 199.03125 71.753906 123.433594 123.703125 81.800781 L 200 177 Z M 103.523438 251.675781 "/>
<path style="fill-rule:nonzero;fill:rgb(39.215686%,90.980392%,23.529412%);fill-opacity:1;stroke-width:2;stroke-linecap:butt;stroke-linejoin:bevel;stroke:rgb(100%,100%,100%);stroke-opacity:1;stroke-miterlimit:10;" d="M 123.703125 81.800781 C 145.351562 64.453125 172.261719 55 200 55 L 200 177 Z M 123.703125 81.800781 "/>
</g>
</svg>
